<?xml version="1.0" encoding="utf-8" standalone="no"?>
<!DOCTYPE svg PUBLIC "-//W3C//DTD SVG 1.1//EN"
  "http://www.w3.org/Graphics/SVG/1.1/DTD/svg11.dtd">
<svg xmlns:xlink="http://www.w3.org/1999/xlink" width="398.50625pt" height="392.514375pt" viewBox="0 0 398.50625 392.514375" xmlns="http://www.w3.org/2000/svg" version="1.1">
 <metadata>
  <rdf:RDF xmlns:dc="http://purl.org/dc/elements/1.1/" xmlns:cc="http://creativecommons.org/ns#" xmlns:rdf="http://www.w3.org/1999/02/22-rdf-syntax-ns#">
   <cc:Work>
    <dc:type rdf:resource="http://purl.org/dc/dcmitype/StillImage"/>
    <dc:date>2025-02-22T21:46:51.310173</dc:date>
    <dc:format>image/svg+xml</dc:format>
    <dc:creator>
     <cc:Agent>
      <dc:title>Matplotlib v3.9.1, https://matplotlib.org/</dc:title>
     </cc:Agent>
    </dc:creator>
   </cc:Work>
  </rdf:RDF>
 </metadata>
 <defs>
  <style type="text/css">*{stroke-linejoin: round; stroke-linecap: butt}</style>
 </defs>
 <g id="figure_1">
  <g id="patch_1">
   <path d="M 0 392.514375 
L 398.50625 392.514375 
L 398.50625 0 
L 0 0 
z
" style="fill: #ffffff"/>
  </g>
  <g id="axes_1">
   <g id="patch_2">
    <path d="M 56.50625 354.958125 
L 391.30625 354.958125 
L 391.30625 22.318125 
L 56.50625 22.318125 
z
" style="fill: #ffffff"/>
   </g>
   <g id="patch_3">
    <path d="M 71.724432 354.958125 
L 76.417291 354.958125 
L 76.417291 353.050062 
L 71.724432 353.050062 
z
" clip-path="url(#pc24f8c0da6)" style="fill: #0000ff; opacity: 0.5"/>
   </g>
   <g id="patch_4">
    <path d="M 76.417291 354.958125 
L 81.11015 354.958125 
L 81.11015 354.958125 
L 76.417291 354.958125 
z
" clip-path="url(#pc24f8c0da6)" style="fill: #0000ff; opacity: 0.5"/>
   </g>
   <g id="patch_5">
    <path d="M 81.11015 354.958125 
L 85.803009 354.958125 
L 85.803009 354.958125 
L 81.11015 354.958125 
z
" clip-path="url(#pc24f8c0da6)" style="fill: #0000ff; opacity: 0.5"/>
   </g>
   <g id="patch_6">
    <path d="M 85.803009 354.958125 
L 90.495869 354.958125 
L 90.495869 354.958125 
L 85.803009 354.958125 
z
" clip-path="url(#pc24f8c0da6)" style="fill: #0000ff; opacity: 0.5"/>
   </g>
   <g id="patch_7">
    <path d="M 90.495869 354.958125 
L 95.188728 354.958125 
L 95.188728 354.958125 
L 90.495869 354.958125 
z
" clip-path="url(#pc24f8c0da6)" style="fill: #0000ff; opacity: 0.5"/>
   </g>
   <g id="patch_8">
    <path d="M 95.188728 354.958125 
L 99.881587 354.958125 
L 99.881587 354.958125 
L 95.188728 354.958125 
z
" clip-path="url(#pc24f8c0da6)" style="fill: #0000ff; opacity: 0.5"/>
   </g>
   <g id="patch_9">
    <path d="M 99.881587 354.958125 
L 104.574446 354.958125 
L 104.574446 351.141998 
L 99.881587 351.141998 
z
" clip-path="url(#pc24f8c0da6)" style="fill: #0000ff; opacity: 0.5"/>
   </g>
   <g id="patch_10">
    <path d="M 104.574446 354.958125 
L 109.267305 354.958125 
L 109.267305 353.050062 
L 104.574446 353.050062 
z
" clip-path="url(#pc24f8c0da6)" style="fill: #0000ff; opacity: 0.5"/>
   </g>
   <g id="patch_11">
    <path d="M 109.267305 354.958125 
L 113.960164 354.958125 
L 113.960164 353.050062 
L 109.267305 353.050062 
z
" clip-path="url(#pc24f8c0da6)" style="fill: #0000ff; opacity: 0.5"/>
   </g>
   <g id="patch_12">
    <path d="M 113.960164 354.958125 
L 118.653024 354.958125 
L 118.653024 354.958125 
L 113.960164 354.958125 
z
" clip-path="url(#pc24f8c0da6)" style="fill: #0000ff; opacity: 0.5"/>
   </g>
   <g id="patch_13">
    <path d="M 118.653024 354.958125 
L 123.345883 354.958125 
L 123.345883 349.233935 
L 118.653024 349.233935 
z
" clip-path="url(#pc24f8c0da6)" style="fill: #0000ff; opacity: 0.5"/>
   </g>
   <g id="patch_14">
    <path d="M 123.345883 354.958125 
L 128.038742 354.958125 
L 128.038742 347.325872 
L 123.345883 347.325872 
z
" clip-path="url(#pc24f8c0da6)" style="fill: #0000ff; opacity: 0.5"/>
   </g>
   <g id="patch_15">
    <path d="M 128.038742 354.958125 
L 132.731601 354.958125 
L 132.731601 343.509745 
L 128.038742 343.509745 
z
" clip-path="url(#pc24f8c0da6)" style="fill: #0000ff; opacity: 0.5"/>
   </g>
   <g id="patch_16">
    <path d="M 132.731601 354.958125 
L 137.42446 354.958125 
L 137.42446 345.417809 
L 132.731601 345.417809 
z
" clip-path="url(#pc24f8c0da6)" style="fill: #0000ff; opacity: 0.5"/>
   </g>
   <g id="patch_17">
    <path d="M 137.42446 354.958125 
L 142.11732 354.958125 
L 142.11732 330.153302 
L 137.42446 330.153302 
z
" clip-path="url(#pc24f8c0da6)" style="fill: #0000ff; opacity: 0.5"/>
   </g>
   <g id="patch_18">
    <path d="M 142.11732 354.958125 
L 146.810179 354.958125 
L 146.810179 330.153302 
L 142.11732 330.153302 
z
" clip-path="url(#pc24f8c0da6)" style="fill: #0000ff; opacity: 0.5"/>
   </g>
   <g id="patch_19">
    <path d="M 146.810179 354.958125 
L 151.503038 354.958125 
L 151.503038 333.969429 
L 146.810179 333.969429 
z
" clip-path="url(#pc24f8c0da6)" style="fill: #0000ff; opacity: 0.5"/>
   </g>
   <g id="patch_20">
    <path d="M 151.503038 354.958125 
L 156.195897 354.958125 
L 156.195897 299.624289 
L 151.503038 299.624289 
z
" clip-path="url(#pc24f8c0da6)" style="fill: #0000ff; opacity: 0.5"/>
   </g>
   <g id="patch_21">
    <path d="M 156.195897 354.958125 
L 160.888756 354.958125 
L 160.888756 299.624289 
L 156.195897 299.624289 
z
" clip-path="url(#pc24f8c0da6)" style="fill: #0000ff; opacity: 0.5"/>
   </g>
   <g id="patch_22">
    <path d="M 160.888756 354.958125 
L 165.581615 354.958125 
L 165.581615 291.992036 
L 160.888756 291.992036 
z
" clip-path="url(#pc24f8c0da6)" style="fill: #0000ff; opacity: 0.5"/>
   </g>
   <g id="patch_23">
    <path d="M 165.581615 354.958125 
L 170.274475 354.958125 
L 170.274475 232.842074 
L 165.581615 232.842074 
z
" clip-path="url(#pc24f8c0da6)" style="fill: #0000ff; opacity: 0.5"/>
   </g>
   <g id="patch_24">
    <path d="M 170.274475 354.958125 
L 174.967334 354.958125 
L 174.967334 234.750137 
L 170.274475 234.750137 
z
" clip-path="url(#pc24f8c0da6)" style="fill: #0000ff; opacity: 0.5"/>
   </g>
   <g id="patch_25">
    <path d="M 174.967334 354.958125 
L 179.660193 354.958125 
L 179.660193 194.680808 
L 174.967334 194.680808 
z
" clip-path="url(#pc24f8c0da6)" style="fill: #0000ff; opacity: 0.5"/>
   </g>
   <g id="patch_26">
    <path d="M 179.660193 354.958125 
L 184.353052 354.958125 
L 184.353052 196.588872 
L 179.660193 196.588872 
z
" clip-path="url(#pc24f8c0da6)" style="fill: #0000ff; opacity: 0.5"/>
   </g>
   <g id="patch_27">
    <path d="M 184.353052 354.958125 
L 189.045911 354.958125 
L 189.045911 175.600175 
L 184.353052 175.600175 
z
" clip-path="url(#pc24f8c0da6)" style="fill: #0000ff; opacity: 0.5"/>
   </g>
   <g id="patch_28">
    <path d="M 189.045911 354.958125 
L 193.738771 354.958125 
L 193.738771 152.703416 
L 189.045911 152.703416 
z
" clip-path="url(#pc24f8c0da6)" style="fill: #0000ff; opacity: 0.5"/>
   </g>
   <g id="patch_29">
    <path d="M 193.738771 354.958125 
L 198.43163 354.958125 
L 198.43163 101.185707 
L 193.738771 101.185707 
z
" clip-path="url(#pc24f8c0da6)" style="fill: #0000ff; opacity: 0.5"/>
   </g>
   <g id="patch_30">
    <path d="M 198.43163 354.958125 
L 203.124489 354.958125 
L 203.124489 89.737327 
L 198.43163 89.737327 
z
" clip-path="url(#pc24f8c0da6)" style="fill: #0000ff; opacity: 0.5"/>
   </g>
   <g id="patch_31">
    <path d="M 203.124489 354.958125 
L 207.817348 354.958125 
L 207.817348 87.829264 
L 203.124489 87.829264 
z
" clip-path="url(#pc24f8c0da6)" style="fill: #0000ff; opacity: 0.5"/>
   </g>
   <g id="patch_32">
    <path d="M 207.817348 354.958125 
L 212.510207 354.958125 
L 212.510207 103.09377 
L 207.817348 103.09377 
z
" clip-path="url(#pc24f8c0da6)" style="fill: #0000ff; opacity: 0.5"/>
   </g>
   <g id="patch_33">
    <path d="M 212.510207 354.958125 
L 217.203066 354.958125 
L 217.203066 112.634087 
L 212.510207 112.634087 
z
" clip-path="url(#pc24f8c0da6)" style="fill: #0000ff; opacity: 0.5"/>
   </g>
   <g id="patch_34">
    <path d="M 217.203066 354.958125 
L 221.895926 354.958125 
L 221.895926 122.174403 
L 217.203066 122.174403 
z
" clip-path="url(#pc24f8c0da6)" style="fill: #0000ff; opacity: 0.5"/>
   </g>
   <g id="patch_35">
    <path d="M 221.895926 354.958125 
L 226.588785 354.958125 
L 226.588785 148.887289 
L 221.895926 148.887289 
z
" clip-path="url(#pc24f8c0da6)" style="fill: #0000ff; opacity: 0.5"/>
   </g>
   <g id="patch_36">
    <path d="M 226.588785 354.958125 
L 231.281644 354.958125 
L 231.281644 190.864682 
L 226.588785 190.864682 
z
" clip-path="url(#pc24f8c0da6)" style="fill: #0000ff; opacity: 0.5"/>
   </g>
   <g id="patch_37">
    <path d="M 231.281644 354.958125 
L 235.974503 354.958125 
L 235.974503 204.221125 
L 231.281644 204.221125 
z
" clip-path="url(#pc24f8c0da6)" style="fill: #0000ff; opacity: 0.5"/>
   </g>
   <g id="patch_38">
    <path d="M 235.974503 354.958125 
L 240.667362 354.958125 
L 240.667362 234.750137 
L 235.974503 234.750137 
z
" clip-path="url(#pc24f8c0da6)" style="fill: #0000ff; opacity: 0.5"/>
   </g>
   <g id="patch_39">
    <path d="M 240.667362 354.958125 
L 245.360222 354.958125 
L 245.360222 251.922707 
L 240.667362 251.922707 
z
" clip-path="url(#pc24f8c0da6)" style="fill: #0000ff; opacity: 0.5"/>
   </g>
   <g id="patch_40">
    <path d="M 245.360222 354.958125 
L 250.053081 354.958125 
L 250.053081 278.635593 
L 245.360222 278.635593 
z
" clip-path="url(#pc24f8c0da6)" style="fill: #0000ff; opacity: 0.5"/>
   </g>
   <g id="patch_41">
    <path d="M 250.053081 354.958125 
L 254.74594 354.958125 
L 254.74594 288.17591 
L 250.053081 288.17591 
z
" clip-path="url(#pc24f8c0da6)" style="fill: #0000ff; opacity: 0.5"/>
   </g>
   <g id="patch_42">
    <path d="M 254.74594 354.958125 
L 259.438799 354.958125 
L 259.438799 288.17591 
L 254.74594 288.17591 
z
" clip-path="url(#pc24f8c0da6)" style="fill: #0000ff; opacity: 0.5"/>
   </g>
   <g id="patch_43">
    <path d="M 259.438799 354.958125 
L 264.131658 354.958125 
L 264.131658 324.429112 
L 259.438799 324.429112 
z
" clip-path="url(#pc24f8c0da6)" style="fill: #0000ff; opacity: 0.5"/>
   </g>
   <g id="patch_44">
    <path d="M 264.131658 354.958125 
L 268.824517 354.958125 
L 268.824517 326.337176 
L 264.131658 326.337176 
z
" clip-path="url(#pc24f8c0da6)" style="fill: #0000ff; opacity: 0.5"/>
   </g>
   <g id="patch_45">
    <path d="M 268.824517 354.958125 
L 273.517377 354.958125 
L 273.517377 335.877492 
L 268.824517 335.877492 
z
" clip-path="url(#pc24f8c0da6)" style="fill: #0000ff; opacity: 0.5"/>
   </g>
   <g id="patch_46">
    <path d="M 273.517377 354.958125 
L 278.210236 354.958125 
L 278.210236 343.509745 
L 273.517377 343.509745 
z
" clip-path="url(#pc24f8c0da6)" style="fill: #0000ff; opacity: 0.5"/>
   </g>
   <g id="patch_47">
    <path d="M 278.210236 354.958125 
L 282.903095 354.958125 
L 282.903095 345.417809 
L 278.210236 345.417809 
z
" clip-path="url(#pc24f8c0da6)" style="fill: #0000ff; opacity: 0.5"/>
   </g>
   <g id="patch_48">
    <path d="M 282.903095 354.958125 
L 287.595954 354.958125 
L 287.595954 353.050062 
L 282.903095 353.050062 
z
" clip-path="url(#pc24f8c0da6)" style="fill: #0000ff; opacity: 0.5"/>
   </g>
   <g id="patch_49">
    <path d="M 287.595954 354.958125 
L 292.288813 354.958125 
L 292.288813 345.417809 
L 287.595954 345.417809 
z
" clip-path="url(#pc24f8c0da6)" style="fill: #0000ff; opacity: 0.5"/>
   </g>
   <g id="patch_50">
    <path d="M 292.288813 354.958125 
L 296.981673 354.958125 
L 296.981673 354.958125 
L 292.288813 354.958125 
z
" clip-path="url(#pc24f8c0da6)" style="fill: #0000ff; opacity: 0.5"/>
   </g>
   <g id="patch_51">
    <path d="M 296.981673 354.958125 
L 301.674532 354.958125 
L 301.674532 353.050062 
L 296.981673 353.050062 
z
" clip-path="url(#pc24f8c0da6)" style="fill: #0000ff; opacity: 0.5"/>
   </g>
   <g id="patch_52">
    <path d="M 301.674532 354.958125 
L 306.367391 354.958125 
L 306.367391 351.141998 
L 301.674532 351.141998 
z
" clip-path="url(#pc24f8c0da6)" style="fill: #0000ff; opacity: 0.5"/>
   </g>
   <g id="patch_53">
    <path d="M 195.193677 354.958125 
L 198.811565 354.958125 
L 198.811565 352.483125 
L 195.193677 352.483125 
z
" clip-path="url(#pc24f8c0da6)" style="fill: #ff0000; opacity: 0.5"/>
   </g>
   <g id="patch_54">
    <path d="M 198.811565 354.958125 
L 202.429453 354.958125 
L 202.429453 352.483125 
L 198.811565 352.483125 
z
" clip-path="url(#pc24f8c0da6)" style="fill: #ff0000; opacity: 0.5"/>
   </g>
   <g id="patch_55">
    <path d="M 202.429453 354.958125 
L 206.047341 354.958125 
L 206.047341 354.958125 
L 202.429453 354.958125 
z
" clip-path="url(#pc24f8c0da6)" style="fill: #ff0000; opacity: 0.5"/>
   </g>
   <g id="patch_56">
    <path d="M 206.047341 354.958125 
L 209.665229 354.958125 
L 209.665229 354.958125 
L 206.047341 354.958125 
z
" clip-path="url(#pc24f8c0da6)" style="fill: #ff0000; opacity: 0.5"/>
   </g>
   <g id="patch_57">
    <path d="M 209.665229 354.958125 
L 213.283116 354.958125 
L 213.283116 350.008125 
L 209.665229 350.008125 
z
" clip-path="url(#pc24f8c0da6)" style="fill: #ff0000; opacity: 0.5"/>
   </g>
   <g id="patch_58">
    <path d="M 213.283116 354.958125 
L 216.901004 354.958125 
L 216.901004 345.058125 
L 213.283116 345.058125 
z
" clip-path="url(#pc24f8c0da6)" style="fill: #ff0000; opacity: 0.5"/>
   </g>
   <g id="patch_59">
    <path d="M 216.901004 354.958125 
L 220.518892 354.958125 
L 220.518892 352.483125 
L 216.901004 352.483125 
z
" clip-path="url(#pc24f8c0da6)" style="fill: #ff0000; opacity: 0.5"/>
   </g>
   <g id="patch_60">
    <path d="M 220.518892 354.958125 
L 224.13678 354.958125 
L 224.13678 347.533125 
L 220.518892 347.533125 
z
" clip-path="url(#pc24f8c0da6)" style="fill: #ff0000; opacity: 0.5"/>
   </g>
   <g id="patch_61">
    <path d="M 224.13678 354.958125 
L 227.754668 354.958125 
L 227.754668 352.483125 
L 224.13678 352.483125 
z
" clip-path="url(#pc24f8c0da6)" style="fill: #ff0000; opacity: 0.5"/>
   </g>
   <g id="patch_62">
    <path d="M 227.754668 354.958125 
L 231.372555 354.958125 
L 231.372555 350.008125 
L 227.754668 350.008125 
z
" clip-path="url(#pc24f8c0da6)" style="fill: #ff0000; opacity: 0.5"/>
   </g>
   <g id="patch_63">
    <path d="M 231.372555 354.958125 
L 234.990443 354.958125 
L 234.990443 340.108125 
L 231.372555 340.108125 
z
" clip-path="url(#pc24f8c0da6)" style="fill: #ff0000; opacity: 0.5"/>
   </g>
   <g id="patch_64">
    <path d="M 234.990443 354.958125 
L 238.608331 354.958125 
L 238.608331 350.008125 
L 234.990443 350.008125 
z
" clip-path="url(#pc24f8c0da6)" style="fill: #ff0000; opacity: 0.5"/>
   </g>
   <g id="patch_65">
    <path d="M 238.608331 354.958125 
L 242.226219 354.958125 
L 242.226219 347.533125 
L 238.608331 347.533125 
z
" clip-path="url(#pc24f8c0da6)" style="fill: #ff0000; opacity: 0.5"/>
   </g>
   <g id="patch_66">
    <path d="M 242.226219 354.958125 
L 245.844107 354.958125 
L 245.844107 345.058125 
L 242.226219 345.058125 
z
" clip-path="url(#pc24f8c0da6)" style="fill: #ff0000; opacity: 0.5"/>
   </g>
   <g id="patch_67">
    <path d="M 245.844107 354.958125 
L 249.461995 354.958125 
L 249.461995 340.108125 
L 245.844107 340.108125 
z
" clip-path="url(#pc24f8c0da6)" style="fill: #ff0000; opacity: 0.5"/>
   </g>
   <g id="patch_68">
    <path d="M 249.461995 354.958125 
L 253.079882 354.958125 
L 253.079882 327.733125 
L 249.461995 327.733125 
z
" clip-path="url(#pc24f8c0da6)" style="fill: #ff0000; opacity: 0.5"/>
   </g>
   <g id="patch_69">
    <path d="M 253.079882 354.958125 
L 256.69777 354.958125 
L 256.69777 325.258125 
L 253.079882 325.258125 
z
" clip-path="url(#pc24f8c0da6)" style="fill: #ff0000; opacity: 0.5"/>
   </g>
   <g id="patch_70">
    <path d="M 256.69777 354.958125 
L 260.315658 354.958125 
L 260.315658 298.033125 
L 256.69777 298.033125 
z
" clip-path="url(#pc24f8c0da6)" style="fill: #ff0000; opacity: 0.5"/>
   </g>
   <g id="patch_71">
    <path d="M 260.315658 354.958125 
L 263.933546 354.958125 
L 263.933546 310.408125 
L 260.315658 310.408125 
z
" clip-path="url(#pc24f8c0da6)" style="fill: #ff0000; opacity: 0.5"/>
   </g>
   <g id="patch_72">
    <path d="M 263.933546 354.958125 
L 267.551434 354.958125 
L 267.551434 260.908125 
L 263.933546 260.908125 
z
" clip-path="url(#pc24f8c0da6)" style="fill: #ff0000; opacity: 0.5"/>
   </g>
   <g id="patch_73">
    <path d="M 267.551434 354.958125 
L 271.169321 354.958125 
L 271.169321 265.858125 
L 267.551434 265.858125 
z
" clip-path="url(#pc24f8c0da6)" style="fill: #ff0000; opacity: 0.5"/>
   </g>
   <g id="patch_74">
    <path d="M 271.169321 354.958125 
L 274.787209 354.958125 
L 274.787209 260.908125 
L 271.169321 260.908125 
z
" clip-path="url(#pc24f8c0da6)" style="fill: #ff0000; opacity: 0.5"/>
   </g>
   <g id="patch_75">
    <path d="M 274.787209 354.958125 
L 278.405097 354.958125 
L 278.405097 218.833125 
L 274.787209 218.833125 
z
" clip-path="url(#pc24f8c0da6)" style="fill: #ff0000; opacity: 0.5"/>
   </g>
   <g id="patch_76">
    <path d="M 278.405097 354.958125 
L 282.022985 354.958125 
L 282.022985 223.783125 
L 278.405097 223.783125 
z
" clip-path="url(#pc24f8c0da6)" style="fill: #ff0000; opacity: 0.5"/>
   </g>
   <g id="patch_77">
    <path d="M 282.022985 354.958125 
L 285.640873 354.958125 
L 285.640873 226.258125 
L 282.022985 226.258125 
z
" clip-path="url(#pc24f8c0da6)" style="fill: #ff0000; opacity: 0.5"/>
   </g>
   <g id="patch_78">
    <path d="M 285.640873 354.958125 
L 289.258761 354.958125 
L 289.258761 181.708125 
L 285.640873 181.708125 
z
" clip-path="url(#pc24f8c0da6)" style="fill: #ff0000; opacity: 0.5"/>
   </g>
   <g id="patch_79">
    <path d="M 289.258761 354.958125 
L 292.876648 354.958125 
L 292.876648 152.008125 
L 289.258761 152.008125 
z
" clip-path="url(#pc24f8c0da6)" style="fill: #ff0000; opacity: 0.5"/>
   </g>
   <g id="patch_80">
    <path d="M 292.876648 354.958125 
L 296.494536 354.958125 
L 296.494536 104.983125 
L 292.876648 104.983125 
z
" clip-path="url(#pc24f8c0da6)" style="fill: #ff0000; opacity: 0.5"/>
   </g>
   <g id="patch_81">
    <path d="M 296.494536 354.958125 
L 300.112424 354.958125 
L 300.112424 50.533125 
L 296.494536 50.533125 
z
" clip-path="url(#pc24f8c0da6)" style="fill: #ff0000; opacity: 0.5"/>
   </g>
   <g id="patch_82">
    <path d="M 300.112424 354.958125 
L 303.730312 354.958125 
L 303.730312 104.983125 
L 300.112424 104.983125 
z
" clip-path="url(#pc24f8c0da6)" style="fill: #ff0000; opacity: 0.5"/>
   </g>
   <g id="patch_83">
    <path d="M 303.730312 354.958125 
L 307.3482 354.958125 
L 307.3482 102.508125 
L 303.730312 102.508125 
z
" clip-path="url(#pc24f8c0da6)" style="fill: #ff0000; opacity: 0.5"/>
   </g>
   <g id="patch_84">
    <path d="M 307.3482 354.958125 
L 310.966087 354.958125 
L 310.966087 100.033125 
L 307.3482 100.033125 
z
" clip-path="url(#pc24f8c0da6)" style="fill: #ff0000; opacity: 0.5"/>
   </g>
   <g id="patch_85">
    <path d="M 310.966087 354.958125 
L 314.583975 354.958125 
L 314.583975 38.158125 
L 310.966087 38.158125 
z
" clip-path="url(#pc24f8c0da6)" style="fill: #ff0000; opacity: 0.5"/>
   </g>
   <g id="patch_86">
    <path d="M 314.583975 354.958125 
L 318.201863 354.958125 
L 318.201863 95.083125 
L 314.583975 95.083125 
z
" clip-path="url(#pc24f8c0da6)" style="fill: #ff0000; opacity: 0.5"/>
   </g>
   <g id="patch_87">
    <path d="M 318.201863 354.958125 
L 321.819751 354.958125 
L 321.819751 97.558125 
L 318.201863 97.558125 
z
" clip-path="url(#pc24f8c0da6)" style="fill: #ff0000; opacity: 0.5"/>
   </g>
   <g id="patch_88">
    <path d="M 321.819751 354.958125 
L 325.437639 354.958125 
L 325.437639 60.433125 
L 321.819751 60.433125 
z
" clip-path="url(#pc24f8c0da6)" style="fill: #ff0000; opacity: 0.5"/>
   </g>
   <g id="patch_89">
    <path d="M 325.437639 354.958125 
L 329.055527 354.958125 
L 329.055527 114.883125 
L 325.437639 114.883125 
z
" clip-path="url(#pc24f8c0da6)" style="fill: #ff0000; opacity: 0.5"/>
   </g>
   <g id="patch_90">
    <path d="M 329.055527 354.958125 
L 332.673414 354.958125 
L 332.673414 169.333125 
L 329.055527 169.333125 
z
" clip-path="url(#pc24f8c0da6)" style="fill: #ff0000; opacity: 0.5"/>
   </g>
   <g id="patch_91">
    <path d="M 332.673414 354.958125 
L 336.291302 354.958125 
L 336.291302 191.608125 
L 332.673414 191.608125 
z
" clip-path="url(#pc24f8c0da6)" style="fill: #ff0000; opacity: 0.5"/>
   </g>
   <g id="patch_92">
    <path d="M 336.291302 354.958125 
L 339.90919 354.958125 
L 339.90919 221.308125 
L 336.291302 221.308125 
z
" clip-path="url(#pc24f8c0da6)" style="fill: #ff0000; opacity: 0.5"/>
   </g>
   <g id="patch_93">
    <path d="M 339.90919 354.958125 
L 343.527078 354.958125 
L 343.527078 228.733125 
L 339.90919 228.733125 
z
" clip-path="url(#pc24f8c0da6)" style="fill: #ff0000; opacity: 0.5"/>
   </g>
   <g id="patch_94">
    <path d="M 343.527078 354.958125 
L 347.144966 354.958125 
L 347.144966 263.383125 
L 343.527078 263.383125 
z
" clip-path="url(#pc24f8c0da6)" style="fill: #ff0000; opacity: 0.5"/>
   </g>
   <g id="patch_95">
    <path d="M 347.144966 354.958125 
L 350.762853 354.958125 
L 350.762853 255.958125 
L 347.144966 255.958125 
z
" clip-path="url(#pc24f8c0da6)" style="fill: #ff0000; opacity: 0.5"/>
   </g>
   <g id="patch_96">
    <path d="M 350.762853 354.958125 
L 354.380741 354.958125 
L 354.380741 295.558125 
L 350.762853 295.558125 
z
" clip-path="url(#pc24f8c0da6)" style="fill: #ff0000; opacity: 0.5"/>
   </g>
   <g id="patch_97">
    <path d="M 354.380741 354.958125 
L 357.998629 354.958125 
L 357.998629 320.308125 
L 354.380741 320.308125 
z
" clip-path="url(#pc24f8c0da6)" style="fill: #ff0000; opacity: 0.5"/>
   </g>
   <g id="patch_98">
    <path d="M 357.998629 354.958125 
L 361.616517 354.958125 
L 361.616517 322.783125 
L 357.998629 322.783125 
z
" clip-path="url(#pc24f8c0da6)" style="fill: #ff0000; opacity: 0.5"/>
   </g>
   <g id="patch_99">
    <path d="M 361.616517 354.958125 
L 365.234405 354.958125 
L 365.234405 335.158125 
L 361.616517 335.158125 
z
" clip-path="url(#pc24f8c0da6)" style="fill: #ff0000; opacity: 0.5"/>
   </g>
   <g id="patch_100">
    <path d="M 365.234405 354.958125 
L 368.852293 354.958125 
L 368.852293 340.108125 
L 365.234405 340.108125 
z
" clip-path="url(#pc24f8c0da6)" style="fill: #ff0000; opacity: 0.5"/>
   </g>
   <g id="patch_101">
    <path d="M 368.852293 354.958125 
L 372.47018 354.958125 
L 372.47018 350.008125 
L 368.852293 350.008125 
z
" clip-path="url(#pc24f8c0da6)" style="fill: #ff0000; opacity: 0.5"/>
   </g>
   <g id="patch_102">
    <path d="M 372.47018 354.958125 
L 376.088068 354.958125 
L 376.088068 350.008125 
L 372.47018 350.008125 
z
" clip-path="url(#pc24f8c0da6)" style="fill: #ff0000; opacity: 0.5"/>
   </g>
   <g id="matplotlib.axis_1">
    <g id="xtick_1">
     <g id="line2d_1">
      <defs>
       <path id="mae6d59b036" d="M 0 0 
L 0 3.5 
" style="stroke: #000000; stroke-width: 0.8"/>
      </defs>
      <g>
       <use xlink:href="#mae6d59b036" x="70.709857" y="354.958125" style="stroke: #000000; stroke-width: 0.8"/>
      </g>
     </g>
     <g id="text_1">
      <!-- −15 -->
      <g transform="translate(60.157513 369.556562) scale(0.1 -0.1)">
       <defs>
        <path id="DejaVuSans-2212" d="M 678 2272 
L 4684 2272 
L 4684 1741 
L 678 1741 
L 678 2272 
z
" transform="scale(0.015625)"/>
        <path id="DejaVuSans-31" d="M 794 531 
L 1825 531 
L 1825 4091 
L 703 3866 
L 703 4441 
L 1819 4666 
L 2450 4666 
L 2450 531 
L 3481 531 
L 3481 0 
L 794 0 
L 794 531 
z
" transform="scale(0.015625)"/>
        <path id="DejaVuSans-35" d="M 691 4666 
L 3169 4666 
L 3169 4134 
L 1269 4134 
L 1269 2991 
Q 1406 3038 1543 3061 
Q 1681 3084 1819 3084 
Q 2600 3084 3056 2656 
Q 3513 2228 3513 1497 
Q 3513 744 3044 326 
Q 2575 -91 1722 -91 
Q 1428 -91 1123 -41 
Q 819 9 494 109 
L 494 744 
Q 775 591 1075 516 
Q 1375 441 1709 441 
Q 2250 441 2565 725 
Q 2881 1009 2881 1497 
Q 2881 1984 2565 2268 
Q 2250 2553 1709 2553 
Q 1456 2553 1204 2497 
Q 953 2441 691 2322 
L 691 4666 
z
" transform="scale(0.015625)"/>
       </defs>
       <use xlink:href="#DejaVuSans-2212"/>
       <use xlink:href="#DejaVuSans-31" x="83.789062"/>
       <use xlink:href="#DejaVuSans-35" x="147.412109"/>
      </g>
     </g>
    </g>
    <g id="xtick_2">
     <g id="line2d_2">
      <g>
       <use xlink:href="#mae6d59b036" x="130.318493" y="354.958125" style="stroke: #000000; stroke-width: 0.8"/>
      </g>
     </g>
     <g id="text_2">
      <!-- −10 -->
      <g transform="translate(119.766149 369.556562) scale(0.1 -0.1)">
       <defs>
        <path id="DejaVuSans-30" d="M 2034 4250 
Q 1547 4250 1301 3770 
Q 1056 3291 1056 2328 
Q 1056 1369 1301 889 
Q 1547 409 2034 409 
Q 2525 409 2770 889 
Q 3016 1369 3016 2328 
Q 3016 3291 2770 3770 
Q 2525 4250 2034 4250 
z
M 2034 4750 
Q 2819 4750 3233 4129 
Q 3647 3509 3647 2328 
Q 3647 1150 3233 529 
Q 2819 -91 2034 -91 
Q 1250 -91 836 529 
Q 422 1150 422 2328 
Q 422 3509 836 4129 
Q 1250 4750 2034 4750 
z
" transform="scale(0.015625)"/>
       </defs>
       <use xlink:href="#DejaVuSans-2212"/>
       <use xlink:href="#DejaVuSans-31" x="83.789062"/>
       <use xlink:href="#DejaVuSans-30" x="147.412109"/>
      </g>
     </g>
    </g>
    <g id="xtick_3">
     <g id="line2d_3">
      <g>
       <use xlink:href="#mae6d59b036" x="189.927129" y="354.958125" style="stroke: #000000; stroke-width: 0.8"/>
      </g>
     </g>
     <g id="text_3">
      <!-- −5 -->
      <g transform="translate(182.556035 369.556562) scale(0.1 -0.1)">
       <use xlink:href="#DejaVuSans-2212"/>
       <use xlink:href="#DejaVuSans-35" x="83.789062"/>
      </g>
     </g>
    </g>
    <g id="xtick_4">
     <g id="line2d_4">
      <g>
       <use xlink:href="#mae6d59b036" x="249.535765" y="354.958125" style="stroke: #000000; stroke-width: 0.8"/>
      </g>
     </g>
     <g id="text_4">
      <!-- 0 -->
      <g transform="translate(246.354515 369.556562) scale(0.1 -0.1)">
       <use xlink:href="#DejaVuSans-30"/>
      </g>
     </g>
    </g>
    <g id="xtick_5">
     <g id="line2d_5">
      <g>
       <use xlink:href="#mae6d59b036" x="309.144401" y="354.958125" style="stroke: #000000; stroke-width: 0.8"/>
      </g>
     </g>
     <g id="text_5">
      <!-- 5 -->
      <g transform="translate(305.963151 369.556562) scale(0.1 -0.1)">
       <use xlink:href="#DejaVuSans-35"/>
      </g>
     </g>
    </g>
    <g id="xtick_6">
     <g id="line2d_6">
      <g>
       <use xlink:href="#mae6d59b036" x="368.753037" y="354.958125" style="stroke: #000000; stroke-width: 0.8"/>
      </g>
     </g>
     <g id="text_6">
      <!-- 10 -->
      <g transform="translate(362.390537 369.556562) scale(0.1 -0.1)">
       <use xlink:href="#DejaVuSans-31"/>
       <use xlink:href="#DejaVuSans-30" x="63.623047"/>
      </g>
     </g>
    </g>
    <g id="text_7">
     <!-- Logits -->
     <g transform="translate(209.020312 383.234687) scale(0.1 -0.1)">
      <defs>
       <path id="DejaVuSans-4c" d="M 628 4666 
L 1259 4666 
L 1259 531 
L 3531 531 
L 3531 0 
L 628 0 
L 628 4666 
z
" transform="scale(0.015625)"/>
       <path id="DejaVuSans-6f" d="M 1959 3097 
Q 1497 3097 1228 2736 
Q 959 2375 959 1747 
Q 959 1119 1226 758 
Q 1494 397 1959 397 
Q 2419 397 2687 759 
Q 2956 1122 2956 1747 
Q 2956 2369 2687 2733 
Q 2419 3097 1959 3097 
z
M 1959 3584 
Q 2709 3584 3137 3096 
Q 3566 2609 3566 1747 
Q 3566 888 3137 398 
Q 2709 -91 1959 -91 
Q 1206 -91 779 398 
Q 353 888 353 1747 
Q 353 2609 779 3096 
Q 1206 3584 1959 3584 
z
" transform="scale(0.015625)"/>
       <path id="DejaVuSans-67" d="M 2906 1791 
Q 2906 2416 2648 2759 
Q 2391 3103 1925 3103 
Q 1463 3103 1205 2759 
Q 947 2416 947 1791 
Q 947 1169 1205 825 
Q 1463 481 1925 481 
Q 2391 481 2648 825 
Q 2906 1169 2906 1791 
z
M 3481 434 
Q 3481 -459 3084 -895 
Q 2688 -1331 1869 -1331 
Q 1566 -1331 1297 -1286 
Q 1028 -1241 775 -1147 
L 775 -588 
Q 1028 -725 1275 -790 
Q 1522 -856 1778 -856 
Q 2344 -856 2625 -561 
Q 2906 -266 2906 331 
L 2906 616 
Q 2728 306 2450 153 
Q 2172 0 1784 0 
Q 1141 0 747 490 
Q 353 981 353 1791 
Q 353 2603 747 3093 
Q 1141 3584 1784 3584 
Q 2172 3584 2450 3431 
Q 2728 3278 2906 2969 
L 2906 3500 
L 3481 3500 
L 3481 434 
z
" transform="scale(0.015625)"/>
       <path id="DejaVuSans-69" d="M 603 3500 
L 1178 3500 
L 1178 0 
L 603 0 
L 603 3500 
z
M 603 4863 
L 1178 4863 
L 1178 4134 
L 603 4134 
L 603 4863 
z
" transform="scale(0.015625)"/>
       <path id="DejaVuSans-74" d="M 1172 4494 
L 1172 3500 
L 2356 3500 
L 2356 3053 
L 1172 3053 
L 1172 1153 
Q 1172 725 1289 603 
Q 1406 481 1766 481 
L 2356 481 
L 2356 0 
L 1766 0 
Q 1100 0 847 248 
Q 594 497 594 1153 
L 594 3053 
L 172 3053 
L 172 3500 
L 594 3500 
L 594 4494 
L 1172 4494 
z
" transform="scale(0.015625)"/>
       <path id="DejaVuSans-73" d="M 2834 3397 
L 2834 2853 
Q 2591 2978 2328 3040 
Q 2066 3103 1784 3103 
Q 1356 3103 1142 2972 
Q 928 2841 928 2578 
Q 928 2378 1081 2264 
Q 1234 2150 1697 2047 
L 1894 2003 
Q 2506 1872 2764 1633 
Q 3022 1394 3022 966 
Q 3022 478 2636 193 
Q 2250 -91 1575 -91 
Q 1294 -91 989 -36 
Q 684 19 347 128 
L 347 722 
Q 666 556 975 473 
Q 1284 391 1588 391 
Q 1994 391 2212 530 
Q 2431 669 2431 922 
Q 2431 1156 2273 1281 
Q 2116 1406 1581 1522 
L 1381 1569 
Q 847 1681 609 1914 
Q 372 2147 372 2553 
Q 372 3047 722 3315 
Q 1072 3584 1716 3584 
Q 2034 3584 2315 3537 
Q 2597 3491 2834 3397 
z
" transform="scale(0.015625)"/>
      </defs>
      <use xlink:href="#DejaVuSans-4c"/>
      <use xlink:href="#DejaVuSans-6f" x="53.962891"/>
      <use xlink:href="#DejaVuSans-67" x="115.144531"/>
      <use xlink:href="#DejaVuSans-69" x="178.621094"/>
      <use xlink:href="#DejaVuSans-74" x="206.404297"/>
      <use xlink:href="#DejaVuSans-73" x="245.613281"/>
     </g>
    </g>
   </g>
   <g id="matplotlib.axis_2">
    <g id="ytick_1">
     <g id="line2d_7">
      <defs>
       <path id="mbdcb242c49" d="M 0 0 
L -3.5 0 
" style="stroke: #000000; stroke-width: 0.8"/>
      </defs>
      <g>
       <use xlink:href="#mbdcb242c49" x="56.50625" y="354.958125" style="stroke: #000000; stroke-width: 0.8"/>
      </g>
     </g>
     <g id="text_8">
      <!-- 0.000 -->
      <g transform="translate(20.878125 358.757344) scale(0.1 -0.1)">
       <defs>
        <path id="DejaVuSans-2e" d="M 684 794 
L 1344 794 
L 1344 0 
L 684 0 
L 684 794 
z
" transform="scale(0.015625)"/>
       </defs>
       <use xlink:href="#DejaVuSans-30"/>
       <use xlink:href="#DejaVuSans-2e" x="63.623047"/>
       <use xlink:href="#DejaVuSans-30" x="95.410156"/>
       <use xlink:href="#DejaVuSans-30" x="159.033203"/>
       <use xlink:href="#DejaVuSans-30" x="222.65625"/>
      </g>
     </g>
    </g>
    <g id="ytick_2">
     <g id="line2d_8">
      <g>
       <use xlink:href="#mbdcb242c49" x="56.50625" y="317.422477" style="stroke: #000000; stroke-width: 0.8"/>
      </g>
     </g>
     <g id="text_9">
      <!-- 0.025 -->
      <g transform="translate(20.878125 321.221695) scale(0.1 -0.1)">
       <defs>
        <path id="DejaVuSans-32" d="M 1228 531 
L 3431 531 
L 3431 0 
L 469 0 
L 469 531 
Q 828 903 1448 1529 
Q 2069 2156 2228 2338 
Q 2531 2678 2651 2914 
Q 2772 3150 2772 3378 
Q 2772 3750 2511 3984 
Q 2250 4219 1831 4219 
Q 1534 4219 1204 4116 
Q 875 4013 500 3803 
L 500 4441 
Q 881 4594 1212 4672 
Q 1544 4750 1819 4750 
Q 2544 4750 2975 4387 
Q 3406 4025 3406 3419 
Q 3406 3131 3298 2873 
Q 3191 2616 2906 2266 
Q 2828 2175 2409 1742 
Q 1991 1309 1228 531 
z
" transform="scale(0.015625)"/>
       </defs>
       <use xlink:href="#DejaVuSans-30"/>
       <use xlink:href="#DejaVuSans-2e" x="63.623047"/>
       <use xlink:href="#DejaVuSans-30" x="95.410156"/>
       <use xlink:href="#DejaVuSans-32" x="159.033203"/>
       <use xlink:href="#DejaVuSans-35" x="222.65625"/>
      </g>
     </g>
    </g>
    <g id="ytick_3">
     <g id="line2d_9">
      <g>
       <use xlink:href="#mbdcb242c49" x="56.50625" y="279.886828" style="stroke: #000000; stroke-width: 0.8"/>
      </g>
     </g>
     <g id="text_10">
      <!-- 0.050 -->
      <g transform="translate(20.878125 283.686047) scale(0.1 -0.1)">
       <use xlink:href="#DejaVuSans-30"/>
       <use xlink:href="#DejaVuSans-2e" x="63.623047"/>
       <use xlink:href="#DejaVuSans-30" x="95.410156"/>
       <use xlink:href="#DejaVuSans-35" x="159.033203"/>
       <use xlink:href="#DejaVuSans-30" x="222.65625"/>
      </g>
     </g>
    </g>
    <g id="ytick_4">
     <g id="line2d_10">
      <g>
       <use xlink:href="#mbdcb242c49" x="56.50625" y="242.35118" style="stroke: #000000; stroke-width: 0.8"/>
      </g>
     </g>
     <g id="text_11">
      <!-- 0.075 -->
      <g transform="translate(20.878125 246.150398) scale(0.1 -0.1)">
       <defs>
        <path id="DejaVuSans-37" d="M 525 4666 
L 3525 4666 
L 3525 4397 
L 1831 0 
L 1172 0 
L 2766 4134 
L 525 4134 
L 525 4666 
z
" transform="scale(0.015625)"/>
       </defs>
       <use xlink:href="#DejaVuSans-30"/>
       <use xlink:href="#DejaVuSans-2e" x="63.623047"/>
       <use xlink:href="#DejaVuSans-30" x="95.410156"/>
       <use xlink:href="#DejaVuSans-37" x="159.033203"/>
       <use xlink:href="#DejaVuSans-35" x="222.65625"/>
      </g>
     </g>
    </g>
    <g id="ytick_5">
     <g id="line2d_11">
      <g>
       <use xlink:href="#mbdcb242c49" x="56.50625" y="204.815531" style="stroke: #000000; stroke-width: 0.8"/>
      </g>
     </g>
     <g id="text_12">
      <!-- 0.100 -->
      <g transform="translate(20.878125 208.61475) scale(0.1 -0.1)">
       <use xlink:href="#DejaVuSans-30"/>
       <use xlink:href="#DejaVuSans-2e" x="63.623047"/>
       <use xlink:href="#DejaVuSans-31" x="95.410156"/>
       <use xlink:href="#DejaVuSans-30" x="159.033203"/>
       <use xlink:href="#DejaVuSans-30" x="222.65625"/>
      </g>
     </g>
    </g>
    <g id="ytick_6">
     <g id="line2d_12">
      <g>
       <use xlink:href="#mbdcb242c49" x="56.50625" y="167.279883" style="stroke: #000000; stroke-width: 0.8"/>
      </g>
     </g>
     <g id="text_13">
      <!-- 0.125 -->
      <g transform="translate(20.878125 171.079102) scale(0.1 -0.1)">
       <use xlink:href="#DejaVuSans-30"/>
       <use xlink:href="#DejaVuSans-2e" x="63.623047"/>
       <use xlink:href="#DejaVuSans-31" x="95.410156"/>
       <use xlink:href="#DejaVuSans-32" x="159.033203"/>
       <use xlink:href="#DejaVuSans-35" x="222.65625"/>
      </g>
     </g>
    </g>
    <g id="ytick_7">
     <g id="line2d_13">
      <g>
       <use xlink:href="#mbdcb242c49" x="56.50625" y="129.744234" style="stroke: #000000; stroke-width: 0.8"/>
      </g>
     </g>
     <g id="text_14">
      <!-- 0.150 -->
      <g transform="translate(20.878125 133.543453) scale(0.1 -0.1)">
       <use xlink:href="#DejaVuSans-30"/>
       <use xlink:href="#DejaVuSans-2e" x="63.623047"/>
       <use xlink:href="#DejaVuSans-31" x="95.410156"/>
       <use xlink:href="#DejaVuSans-35" x="159.033203"/>
       <use xlink:href="#DejaVuSans-30" x="222.65625"/>
      </g>
     </g>
    </g>
    <g id="ytick_8">
     <g id="line2d_14">
      <g>
       <use xlink:href="#mbdcb242c49" x="56.50625" y="92.208586" style="stroke: #000000; stroke-width: 0.8"/>
      </g>
     </g>
     <g id="text_15">
      <!-- 0.175 -->
      <g transform="translate(20.878125 96.007805) scale(0.1 -0.1)">
       <use xlink:href="#DejaVuSans-30"/>
       <use xlink:href="#DejaVuSans-2e" x="63.623047"/>
       <use xlink:href="#DejaVuSans-31" x="95.410156"/>
       <use xlink:href="#DejaVuSans-37" x="159.033203"/>
       <use xlink:href="#DejaVuSans-35" x="222.65625"/>
      </g>
     </g>
    </g>
    <g id="ytick_9">
     <g id="line2d_15">
      <g>
       <use xlink:href="#mbdcb242c49" x="56.50625" y="54.672938" style="stroke: #000000; stroke-width: 0.8"/>
      </g>
     </g>
     <g id="text_16">
      <!-- 0.200 -->
      <g transform="translate(20.878125 58.472156) scale(0.1 -0.1)">
       <use xlink:href="#DejaVuSans-30"/>
       <use xlink:href="#DejaVuSans-2e" x="63.623047"/>
       <use xlink:href="#DejaVuSans-32" x="95.410156"/>
       <use xlink:href="#DejaVuSans-30" x="159.033203"/>
       <use xlink:href="#DejaVuSans-30" x="222.65625"/>
      </g>
     </g>
    </g>
    <g id="text_17">
     <!-- Frequency -->
     <g transform="translate(14.798437 214.467812) rotate(-90) scale(0.1 -0.1)">
      <defs>
       <path id="DejaVuSans-46" d="M 628 4666 
L 3309 4666 
L 3309 4134 
L 1259 4134 
L 1259 2759 
L 3109 2759 
L 3109 2228 
L 1259 2228 
L 1259 0 
L 628 0 
L 628 4666 
z
" transform="scale(0.015625)"/>
       <path id="DejaVuSans-72" d="M 2631 2963 
Q 2534 3019 2420 3045 
Q 2306 3072 2169 3072 
Q 1681 3072 1420 2755 
Q 1159 2438 1159 1844 
L 1159 0 
L 581 0 
L 581 3500 
L 1159 3500 
L 1159 2956 
Q 1341 3275 1631 3429 
Q 1922 3584 2338 3584 
Q 2397 3584 2469 3576 
Q 2541 3569 2628 3553 
L 2631 2963 
z
" transform="scale(0.015625)"/>
       <path id="DejaVuSans-65" d="M 3597 1894 
L 3597 1613 
L 953 1613 
Q 991 1019 1311 708 
Q 1631 397 2203 397 
Q 2534 397 2845 478 
Q 3156 559 3463 722 
L 3463 178 
Q 3153 47 2828 -22 
Q 2503 -91 2169 -91 
Q 1331 -91 842 396 
Q 353 884 353 1716 
Q 353 2575 817 3079 
Q 1281 3584 2069 3584 
Q 2775 3584 3186 3129 
Q 3597 2675 3597 1894 
z
M 3022 2063 
Q 3016 2534 2758 2815 
Q 2500 3097 2075 3097 
Q 1594 3097 1305 2825 
Q 1016 2553 972 2059 
L 3022 2063 
z
" transform="scale(0.015625)"/>
       <path id="DejaVuSans-71" d="M 947 1747 
Q 947 1113 1208 752 
Q 1469 391 1925 391 
Q 2381 391 2643 752 
Q 2906 1113 2906 1747 
Q 2906 2381 2643 2742 
Q 2381 3103 1925 3103 
Q 1469 3103 1208 2742 
Q 947 2381 947 1747 
z
M 2906 525 
Q 2725 213 2448 61 
Q 2172 -91 1784 -91 
Q 1150 -91 751 415 
Q 353 922 353 1747 
Q 353 2572 751 3078 
Q 1150 3584 1784 3584 
Q 2172 3584 2448 3432 
Q 2725 3281 2906 2969 
L 2906 3500 
L 3481 3500 
L 3481 -1331 
L 2906 -1331 
L 2906 525 
z
" transform="scale(0.015625)"/>
       <path id="DejaVuSans-75" d="M 544 1381 
L 544 3500 
L 1119 3500 
L 1119 1403 
Q 1119 906 1312 657 
Q 1506 409 1894 409 
Q 2359 409 2629 706 
Q 2900 1003 2900 1516 
L 2900 3500 
L 3475 3500 
L 3475 0 
L 2900 0 
L 2900 538 
Q 2691 219 2414 64 
Q 2138 -91 1772 -91 
Q 1169 -91 856 284 
Q 544 659 544 1381 
z
M 1991 3584 
L 1991 3584 
z
" transform="scale(0.015625)"/>
       <path id="DejaVuSans-6e" d="M 3513 2113 
L 3513 0 
L 2938 0 
L 2938 2094 
Q 2938 2591 2744 2837 
Q 2550 3084 2163 3084 
Q 1697 3084 1428 2787 
Q 1159 2491 1159 1978 
L 1159 0 
L 581 0 
L 581 3500 
L 1159 3500 
L 1159 2956 
Q 1366 3272 1645 3428 
Q 1925 3584 2291 3584 
Q 2894 3584 3203 3211 
Q 3513 2838 3513 2113 
z
" transform="scale(0.015625)"/>
       <path id="DejaVuSans-63" d="M 3122 3366 
L 3122 2828 
Q 2878 2963 2633 3030 
Q 2388 3097 2138 3097 
Q 1578 3097 1268 2742 
Q 959 2388 959 1747 
Q 959 1106 1268 751 
Q 1578 397 2138 397 
Q 2388 397 2633 464 
Q 2878 531 3122 666 
L 3122 134 
Q 2881 22 2623 -34 
Q 2366 -91 2075 -91 
Q 1284 -91 818 406 
Q 353 903 353 1747 
Q 353 2603 823 3093 
Q 1294 3584 2113 3584 
Q 2378 3584 2631 3529 
Q 2884 3475 3122 3366 
z
" transform="scale(0.015625)"/>
       <path id="DejaVuSans-79" d="M 2059 -325 
Q 1816 -950 1584 -1140 
Q 1353 -1331 966 -1331 
L 506 -1331 
L 506 -850 
L 844 -850 
Q 1081 -850 1212 -737 
Q 1344 -625 1503 -206 
L 1606 56 
L 191 3500 
L 800 3500 
L 1894 763 
L 2988 3500 
L 3597 3500 
L 2059 -325 
z
" transform="scale(0.015625)"/>
      </defs>
      <use xlink:href="#DejaVuSans-46"/>
      <use xlink:href="#DejaVuSans-72" x="50.269531"/>
      <use xlink:href="#DejaVuSans-65" x="89.132812"/>
      <use xlink:href="#DejaVuSans-71" x="150.65625"/>
      <use xlink:href="#DejaVuSans-75" x="214.132812"/>
      <use xlink:href="#DejaVuSans-65" x="277.511719"/>
      <use xlink:href="#DejaVuSans-6e" x="339.035156"/>
      <use xlink:href="#DejaVuSans-63" x="402.414062"/>
      <use xlink:href="#DejaVuSans-79" x="457.394531"/>
     </g>
    </g>
   </g>
   <g id="patch_103">
    <path d="M 56.50625 354.958125 
L 56.50625 22.318125 
" style="fill: none; stroke: #000000; stroke-width: 0.8; stroke-linejoin: miter; stroke-linecap: square"/>
   </g>
   <g id="patch_104">
    <path d="M 391.30625 354.958125 
L 391.30625 22.318125 
" style="fill: none; stroke: #000000; stroke-width: 0.8; stroke-linejoin: miter; stroke-linecap: square"/>
   </g>
   <g id="patch_105">
    <path d="M 56.50625 354.958125 
L 391.30625 354.958125 
" style="fill: none; stroke: #000000; stroke-width: 0.8; stroke-linejoin: miter; stroke-linecap: square"/>
   </g>
   <g id="patch_106">
    <path d="M 56.50625 22.318125 
L 391.30625 22.318125 
" style="fill: none; stroke: #000000; stroke-width: 0.8; stroke-linejoin: miter; stroke-linecap: square"/>
   </g>
   <g id="text_18">
    <!-- Logit Distribution - stargan -->
    <g transform="translate(143.47625 16.318125) scale(0.12 -0.12)">
     <defs>
      <path id="DejaVuSans-20" transform="scale(0.015625)"/>
      <path id="DejaVuSans-44" d="M 1259 4147 
L 1259 519 
L 2022 519 
Q 2988 519 3436 956 
Q 3884 1394 3884 2338 
Q 3884 3275 3436 3711 
Q 2988 4147 2022 4147 
L 1259 4147 
z
M 628 4666 
L 1925 4666 
Q 3281 4666 3915 4102 
Q 4550 3538 4550 2338 
Q 4550 1131 3912 565 
Q 3275 0 1925 0 
L 628 0 
L 628 4666 
z
" transform="scale(0.015625)"/>
      <path id="DejaVuSans-62" d="M 3116 1747 
Q 3116 2381 2855 2742 
Q 2594 3103 2138 3103 
Q 1681 3103 1420 2742 
Q 1159 2381 1159 1747 
Q 1159 1113 1420 752 
Q 1681 391 2138 391 
Q 2594 391 2855 752 
Q 3116 1113 3116 1747 
z
M 1159 2969 
Q 1341 3281 1617 3432 
Q 1894 3584 2278 3584 
Q 2916 3584 3314 3078 
Q 3713 2572 3713 1747 
Q 3713 922 3314 415 
Q 2916 -91 2278 -91 
Q 1894 -91 1617 61 
Q 1341 213 1159 525 
L 1159 0 
L 581 0 
L 581 4863 
L 1159 4863 
L 1159 2969 
z
" transform="scale(0.015625)"/>
      <path id="DejaVuSans-2d" d="M 313 2009 
L 1997 2009 
L 1997 1497 
L 313 1497 
L 313 2009 
z
" transform="scale(0.015625)"/>
      <path id="DejaVuSans-61" d="M 2194 1759 
Q 1497 1759 1228 1600 
Q 959 1441 959 1056 
Q 959 750 1161 570 
Q 1363 391 1709 391 
Q 2188 391 2477 730 
Q 2766 1069 2766 1631 
L 2766 1759 
L 2194 1759 
z
M 3341 1997 
L 3341 0 
L 2766 0 
L 2766 531 
Q 2569 213 2275 61 
Q 1981 -91 1556 -91 
Q 1019 -91 701 211 
Q 384 513 384 1019 
Q 384 1609 779 1909 
Q 1175 2209 1959 2209 
L 2766 2209 
L 2766 2266 
Q 2766 2663 2505 2880 
Q 2244 3097 1772 3097 
Q 1472 3097 1187 3025 
Q 903 2953 641 2809 
L 641 3341 
Q 956 3463 1253 3523 
Q 1550 3584 1831 3584 
Q 2591 3584 2966 3190 
Q 3341 2797 3341 1997 
z
" transform="scale(0.015625)"/>
     </defs>
     <use xlink:href="#DejaVuSans-4c"/>
     <use xlink:href="#DejaVuSans-6f" x="53.962891"/>
     <use xlink:href="#DejaVuSans-67" x="115.144531"/>
     <use xlink:href="#DejaVuSans-69" x="178.621094"/>
     <use xlink:href="#DejaVuSans-74" x="206.404297"/>
     <use xlink:href="#DejaVuSans-20" x="245.613281"/>
     <use xlink:href="#DejaVuSans-44" x="277.400391"/>
     <use xlink:href="#DejaVuSans-69" x="354.402344"/>
     <use xlink:href="#DejaVuSans-73" x="382.185547"/>
     <use xlink:href="#DejaVuSans-74" x="434.285156"/>
     <use xlink:href="#DejaVuSans-72" x="473.494141"/>
     <use xlink:href="#DejaVuSans-69" x="514.607422"/>
     <use xlink:href="#DejaVuSans-62" x="542.390625"/>
     <use xlink:href="#DejaVuSans-75" x="605.867188"/>
     <use xlink:href="#DejaVuSans-74" x="669.246094"/>
     <use xlink:href="#DejaVuSans-69" x="708.455078"/>
     <use xlink:href="#DejaVuSans-6f" x="736.238281"/>
     <use xlink:href="#DejaVuSans-6e" x="797.419922"/>
     <use xlink:href="#DejaVuSans-20" x="860.798828"/>
     <use xlink:href="#DejaVuSans-2d" x="892.585938"/>
     <use xlink:href="#DejaVuSans-20" x="928.669922"/>
     <use xlink:href="#DejaVuSans-73" x="960.457031"/>
     <use xlink:href="#DejaVuSans-74" x="1012.556641"/>
     <use xlink:href="#DejaVuSans-61" x="1051.765625"/>
     <use xlink:href="#DejaVuSans-72" x="1113.044922"/>
     <use xlink:href="#DejaVuSans-67" x="1152.408203"/>
     <use xlink:href="#DejaVuSans-61" x="1215.884766"/>
     <use xlink:href="#DejaVuSans-6e" x="1277.164062"/>
    </g>
   </g>
   <g id="legend_1">
    <g id="patch_107">
     <path d="M 164.446094 59.674375 
L 283.366406 59.674375 
Q 285.366406 59.674375 285.366406 57.674375 
L 285.366406 29.318125 
Q 285.366406 27.318125 283.366406 27.318125 
L 164.446094 27.318125 
Q 162.446094 27.318125 162.446094 29.318125 
L 162.446094 57.674375 
Q 162.446094 59.674375 164.446094 59.674375 
z
" style="fill: #ffffff; opacity: 0.8; stroke: #cccccc; stroke-linejoin: miter"/>
    </g>
    <g id="patch_108">
     <path d="M 166.446094 38.916562 
L 186.446094 38.916562 
L 186.446094 31.916562 
L 166.446094 31.916562 
z
" style="fill: #0000ff; opacity: 0.5"/>
    </g>
    <g id="text_19">
     <!-- Real Images -->
     <g transform="translate(194.446094 38.916562) scale(0.1 -0.1)">
      <defs>
       <path id="DejaVuSans-52" d="M 2841 2188 
Q 3044 2119 3236 1894 
Q 3428 1669 3622 1275 
L 4263 0 
L 3584 0 
L 2988 1197 
Q 2756 1666 2539 1819 
Q 2322 1972 1947 1972 
L 1259 1972 
L 1259 0 
L 628 0 
L 628 4666 
L 2053 4666 
Q 2853 4666 3247 4331 
Q 3641 3997 3641 3322 
Q 3641 2881 3436 2590 
Q 3231 2300 2841 2188 
z
M 1259 4147 
L 1259 2491 
L 2053 2491 
Q 2509 2491 2742 2702 
Q 2975 2913 2975 3322 
Q 2975 3731 2742 3939 
Q 2509 4147 2053 4147 
L 1259 4147 
z
" transform="scale(0.015625)"/>
       <path id="DejaVuSans-6c" d="M 603 4863 
L 1178 4863 
L 1178 0 
L 603 0 
L 603 4863 
z
" transform="scale(0.015625)"/>
       <path id="DejaVuSans-49" d="M 628 4666 
L 1259 4666 
L 1259 0 
L 628 0 
L 628 4666 
z
" transform="scale(0.015625)"/>
       <path id="DejaVuSans-6d" d="M 3328 2828 
Q 3544 3216 3844 3400 
Q 4144 3584 4550 3584 
Q 5097 3584 5394 3201 
Q 5691 2819 5691 2113 
L 5691 0 
L 5113 0 
L 5113 2094 
Q 5113 2597 4934 2840 
Q 4756 3084 4391 3084 
Q 3944 3084 3684 2787 
Q 3425 2491 3425 1978 
L 3425 0 
L 2847 0 
L 2847 2094 
Q 2847 2600 2669 2842 
Q 2491 3084 2119 3084 
Q 1678 3084 1418 2786 
Q 1159 2488 1159 1978 
L 1159 0 
L 581 0 
L 581 3500 
L 1159 3500 
L 1159 2956 
Q 1356 3278 1631 3431 
Q 1906 3584 2284 3584 
Q 2666 3584 2933 3390 
Q 3200 3197 3328 2828 
z
" transform="scale(0.015625)"/>
      </defs>
      <use xlink:href="#DejaVuSans-52"/>
      <use xlink:href="#DejaVuSans-65" x="64.982422"/>
      <use xlink:href="#DejaVuSans-61" x="126.505859"/>
      <use xlink:href="#DejaVuSans-6c" x="187.785156"/>
      <use xlink:href="#DejaVuSans-20" x="215.568359"/>
      <use xlink:href="#DejaVuSans-49" x="247.355469"/>
      <use xlink:href="#DejaVuSans-6d" x="276.847656"/>
      <use xlink:href="#DejaVuSans-61" x="374.259766"/>
      <use xlink:href="#DejaVuSans-67" x="435.539062"/>
      <use xlink:href="#DejaVuSans-65" x="499.015625"/>
      <use xlink:href="#DejaVuSans-73" x="560.539062"/>
     </g>
    </g>
    <g id="patch_109">
     <path d="M 166.446094 53.594687 
L 186.446094 53.594687 
L 186.446094 46.594687 
L 166.446094 46.594687 
z
" style="fill: #ff0000; opacity: 0.5"/>
    </g>
    <g id="text_20">
     <!-- Synthetic Images -->
     <g transform="translate(194.446094 53.594687) scale(0.1 -0.1)">
      <defs>
       <path id="DejaVuSans-53" d="M 3425 4513 
L 3425 3897 
Q 3066 4069 2747 4153 
Q 2428 4238 2131 4238 
Q 1616 4238 1336 4038 
Q 1056 3838 1056 3469 
Q 1056 3159 1242 3001 
Q 1428 2844 1947 2747 
L 2328 2669 
Q 3034 2534 3370 2195 
Q 3706 1856 3706 1288 
Q 3706 609 3251 259 
Q 2797 -91 1919 -91 
Q 1588 -91 1214 -16 
Q 841 59 441 206 
L 441 856 
Q 825 641 1194 531 
Q 1563 422 1919 422 
Q 2459 422 2753 634 
Q 3047 847 3047 1241 
Q 3047 1584 2836 1778 
Q 2625 1972 2144 2069 
L 1759 2144 
Q 1053 2284 737 2584 
Q 422 2884 422 3419 
Q 422 4038 858 4394 
Q 1294 4750 2059 4750 
Q 2388 4750 2728 4690 
Q 3069 4631 3425 4513 
z
" transform="scale(0.015625)"/>
       <path id="DejaVuSans-68" d="M 3513 2113 
L 3513 0 
L 2938 0 
L 2938 2094 
Q 2938 2591 2744 2837 
Q 2550 3084 2163 3084 
Q 1697 3084 1428 2787 
Q 1159 2491 1159 1978 
L 1159 0 
L 581 0 
L 581 4863 
L 1159 4863 
L 1159 2956 
Q 1366 3272 1645 3428 
Q 1925 3584 2291 3584 
Q 2894 3584 3203 3211 
Q 3513 2838 3513 2113 
z
" transform="scale(0.015625)"/>
      </defs>
      <use xlink:href="#DejaVuSans-53"/>
      <use xlink:href="#DejaVuSans-79" x="63.476562"/>
      <use xlink:href="#DejaVuSans-6e" x="122.65625"/>
      <use xlink:href="#DejaVuSans-74" x="186.035156"/>
      <use xlink:href="#DejaVuSans-68" x="225.244141"/>
      <use xlink:href="#DejaVuSans-65" x="288.623047"/>
      <use xlink:href="#DejaVuSans-74" x="350.146484"/>
      <use xlink:href="#DejaVuSans-69" x="389.355469"/>
      <use xlink:href="#DejaVuSans-63" x="417.138672"/>
      <use xlink:href="#DejaVuSans-20" x="472.119141"/>
      <use xlink:href="#DejaVuSans-49" x="503.90625"/>
      <use xlink:href="#DejaVuSans-6d" x="533.398438"/>
      <use xlink:href="#DejaVuSans-61" x="630.810547"/>
      <use xlink:href="#DejaVuSans-67" x="692.089844"/>
      <use xlink:href="#DejaVuSans-65" x="755.566406"/>
      <use xlink:href="#DejaVuSans-73" x="817.089844"/>
     </g>
    </g>
   </g>
  </g>
 </g>
 <defs>
  <clipPath id="pc24f8c0da6">
   <rect x="56.50625" y="22.318125" width="334.8" height="332.64"/>
  </clipPath>
 </defs>
</svg>
